<svg xmlns="http://www.w3.org/2000/svg" viewBox="0 0 800 200" width="800" height="200">
  <!-- Background gradient -->
  <defs>
    <linearGradient id="grad1" x1="0%" y1="0%" x2="100%" y2="0%">
      <stop offset="0%" style="stop-color:#10aa50;stop-opacity:0.1" />
      <stop offset="100%" style="stop-color:#13aa52;stop-opacity:0.2" />
    </linearGradient>
  </defs>

  <rect width="800" height="200" fill="url(#grad1)"/>

  <!-- MongoDB Bulk icon - simplified version -->
  <g transform="translate(50, 70)">
    <!-- MongoDB leaf shape with bulk lines -->
    <g transform="scale(0.8)">
      <!-- Main leaf -->
      <path fill="#1C4B32" d="M35,5 Q40,20 40,40 Q40,60 35,75 Q33,78 30,78 Q27,78 25,75 Q20,60 20,40 Q20,20 25,5 Q27,2 30,2 Q33,2 35,5 Z"/>
      <!-- Highlight -->
      <path fill="#F9F9F6" d="M28,10 Q29,25 29,40 Q29,55 28,68 Q27.5,70 27,70 Q26.5,70 26,68 Q25,55 25,40 Q25,25 26,10 Q26.5,8 27,8 Q27.5,8 28,10 Z"/>
      
      <!-- Horizontal lines representing bulk operations -->
      <rect x="-15" y="20" width="30" height="3" rx="1.5" fill="#10aa50"/>
      <rect x="-15" y="30" width="30" height="3" rx="1.5" fill="#10aa50"/>
      <rect x="-15" y="40" width="30" height="3" rx="1.5" fill="#10aa50"/>
      <rect x="-15" y="50" width="30" height="3" rx="1.5" fill="#10aa50"/>
    </g>
  </g>

  <!-- Title text -->
  <text x="150" y="85" font-family="Arial, sans-serif" font-size="48" font-weight="bold" fill="#333">
    MongoDB Bulk
  </text>

  <!-- Subtitle -->
  <text x="150" y="120" font-family="Arial, sans-serif" font-size="24" fill="#666">
    Bulk Operations for n8n
  </text>

  <!-- Features -->
  <g transform="translate(150, 140)">
    <text x="0" y="0" font-family="Arial, sans-serif" font-size="14" fill="#10aa50">
      ⚡ Fast Bulk Operations
    </text>
    <text x="170" y="0" font-family="Arial, sans-serif" font-size="14" fill="#10aa50">
      📦 Insert/Update/Delete Many
    </text>
    <text x="390" y="0" font-family="Arial, sans-serif" font-size="14" fill="#10aa50">
      🔄 Mixed Bulk Write
    </text>
  </g>

  <!-- Decorative elements - stacked layers -->
  <g transform="translate(700, 60)">
    <rect x="0" y="0" width="40" height="8" rx="4" fill="#10aa50" opacity="0.3"/>
    <rect x="0" y="12" width="40" height="8" rx="4" fill="#10aa50" opacity="0.5"/>
    <rect x="0" y="24" width="40" height="8" rx="4" fill="#10aa50" opacity="0.7"/>
    <rect x="0" y="36" width="40" height="8" rx="4" fill="#10aa50"/>
  </g>
</svg>
