<svg xmlns="http://www.w3.org/2000/svg" viewBox="0 0 800 200" width="800" height="200">
  <!-- Background gradient -->
  <defs>
    <linearGradient id="grad1" x1="0%" y1="0%" x2="100%" y2="0%">
      <stop offset="0%" style="stop-color:#10aa50;stop-opacity:0.1" />
      <stop offset="100%" style="stop-color:#13aa52;stop-opacity:0.2" />
    </linearGradient>
  </defs>

  <rect width="800" height="200" fill="url(#grad1)"/>

  <!-- MongoDB Bulk icon - n8n-nodes-mongo-bulk.svg -->
  <g transform="translate(35, 40) scale(0.12)">
    <path d="M0 0 C2.60546875 0.40625 2.60546875 0.40625 4.4921875 2.25 C5.08644531 3.1265625 5.68070313 4.003125 6.29296875 4.90625 C6.98777344 5.91945313 7.68257812 6.93265625 8.3984375 7.9765625 C10.30130653 10.89299882 12.11287849 13.86087359 13.92089844 16.83666992 C22.90868108 31.59093389 33.63313999 45.10721333 44.8984375 58.1796875 C49.86611553 64.02163269 54.43645464 70.18968612 59.03857422 76.3203125 C60.0420409 77.65618338 61.04859612 78.98974322 62.05908203 80.3203125 C97.08018214 126.44267201 121.13835359 183.36825398 120.98046875 241.90625 C120.97926025 242.74040436 120.97805176 243.57455872 120.97680664 244.43399048 C120.92325663 258.10540697 120.05015818 271.11861178 116.60546875 284.40625 C116.32638672 285.48406738 116.04730469 286.56188477 115.75976562 287.67236328 C111.83329389 302.4258099 107.01696096 316.55892847 100.60546875 330.40625 C100.17250488 331.36208984 99.73954102 332.31792969 99.29345703 333.30273438 C90.05819039 353.6312503 79.07671736 372.59080117 65.60546875 390.40625 C65.17024902 390.9842334 64.7350293 391.5622168 64.28662109 392.15771484 C58.57625807 399.69687351 52.56417808 406.83761039 46.08984375 413.73046875 C44.01360498 415.96666932 42.0509137 418.24532002 40.10546875 420.59375 C36.59503206 424.66956952 32.45678088 427.82965517 28.26171875 431.171875 C24.6131624 434.24095476 21.46012542 437.58969815 18.60546875 441.40625 C18.08919922 442.08163818 17.57292969 442.75702637 17.04101562 443.45288086 C15.05233146 447.54422649 15.18317761 451.09064584 15.19921875 455.58203125 C15.18296448 456.90801582 15.18296448 456.90801582 15.16638184 458.26078796 C15.13219548 461.08018312 15.11654952 463.89917513 15.10546875 466.71875 C15.09082649 470.42356053 15.05698314 474.12748202 15.01171875 477.83203125 C15.01473999 478.67188065 15.01776123 479.51173004 15.02087402 480.37702942 C14.9380731 486.96197049 13.9692317 492.77234271 9.41796875 497.84375 C5.78976745 499.85941739 2.72585529 500.9497591 -1.39453125 500.40625 C-7.09577828 497.94833799 -10.38456613 495.1770613 -12.76957703 489.37176514 C-13.79620099 486.14297674 -13.78259415 483.05050056 -13.80078125 479.6796875 C-13.81161743 478.96898102 -13.82245361 478.25827454 -13.83361816 477.52603149 C-13.87909472 474.51676513 -13.89095855 471.50759505 -13.90576172 468.49804688 C-13.92149718 466.28745328 -13.95448849 464.07756705 -13.98828125 461.8671875 C-13.99537109 460.55540527 -14.00246094 459.24362305 -14.00976562 457.89208984 C-14.70122835 451.62768326 -18.22161616 448.32401408 -22.58203125 444.03125 C-23.07034424 443.54938232 -23.55865723 443.06751465 -24.06176758 442.57104492 C-27.43153639 439.27199761 -30.91720659 436.14574257 -34.49609375 433.078125 C-39.89800216 428.32088879 -44.77232827 423.08354884 -49.45703125 417.62890625 C-52.68279953 413.92837772 -56.02799396 410.33551552 -59.35546875 406.7265625 C-61.39453125 404.40625 -61.39453125 404.40625 -62.39453125 402.40625 C-63.69665558 402.40482498 -64.99877991 402.40339996 -66.34036255 402.40193176 C-78.6119302 402.38526199 -90.88316624 402.34248856 -103.15455818 402.27415943 C-109.46343871 402.23986945 -115.77207655 402.21477625 -122.08105469 402.21069336 C-128.16966164 402.20641485 -134.25772095 402.17798818 -140.34615707 402.13281822 C-142.66893194 402.11982908 -144.99177229 402.11554051 -147.31457901 402.12009621 C-150.5685565 402.12499182 -153.82092704 402.09895347 -157.07470703 402.06567383 C-158.51509087 402.07861229 -158.51509087 402.07861229 -159.98457336 402.09181213 C-164.41139455 402.01592077 -167.4412805 401.84147075 -170.95480347 398.99028015 C-175.35231304 394.33267146 -175.7973217 391.0803682 -175.640625 384.8125 C-175.30980307 381.57779671 -174.58732809 379.81832652 -172.39453125 377.40625 C-167.77696131 374.58509162 -163.94083507 373.98510347 -158.640625 374.078125 C-157.88250015 374.07963562 -157.12437531 374.08114624 -156.34327698 374.08270264 C-153.8391835 374.09211504 -151.33592371 374.12378731 -148.83203125 374.15625 C-147.07878215 374.16824617 -145.32552635 374.1792963 -143.57226562 374.18945312 C-122.8433362 374.34026483 -102.11626611 374.86215976 -81.39453125 375.40625 C-81.73597168 374.8299585 -82.07741211 374.25366699 -82.42919922 373.65991211 C-88.7841811 362.86282982 -94.84719734 352.03720476 -99.83203125 340.53125 C-100.20763184 339.66749756 -100.58323242 338.80374512 -100.97021484 337.91381836 C-103.38304038 332.19758051 -105.48892307 326.39180927 -107.53930664 320.53857422 C-107.81502754 319.7542955 -108.09074844 318.97001678 -108.37482452 318.16197205 C-109.04904025 316.24374225 -109.72192217 314.32504374 -110.39453125 312.40625 C-110.94044985 312.40901538 -111.48636845 312.41178076 -112.04883003 312.41462994 C-125.3448067 312.48094212 -138.64075432 312.53036437 -151.93686104 312.56168652 C-158.36682421 312.57734297 -164.79666802 312.59858123 -171.2265625 312.63256836 C-177.43165129 312.66516199 -183.63662527 312.68310317 -189.84179306 312.69088173 C-192.20927615 312.69642519 -194.57675295 312.70725012 -196.94418716 312.72344017 C-200.2599674 312.745214 -203.57527307 312.74821688 -206.89111328 312.74682617 C-208.35954933 312.76300491 -208.35954933 312.76300491 -209.85765076 312.7795105 C-215.12329653 312.75560957 -218.85998498 312.39959529 -223.39453125 309.40625 C-227.00723394 304.88464325 -226.9030621 300.81537957 -226.73828125 295.2265625 C-226.39453125 292.40625 -226.39453125 292.40625 -224.83203125 289.28125 C-219.12258873 284.88937114 -212.49812239 285.12357313 -205.60375977 285.17919922 C-204.64688766 285.17890717 -203.69001556 285.17861511 -202.70414734 285.17831421 C-199.5604832 285.17970079 -196.41705993 285.19523038 -193.2734375 285.2109375 C-191.08625925 285.21467002 -188.89907933 285.21751586 -186.7118988 285.21951294 C-180.96948591 285.22713059 -175.22717499 285.24676306 -169.48480225 285.2689209 C-163.61943949 285.28941958 -157.75406017 285.29852325 -151.88867188 285.30859375 C-140.39058032 285.3300107 -128.89256428 285.36412409 -117.39453125 285.40625 C-117.51570312 284.8479248 -117.636875 284.28959961 -117.76171875 283.71435547 C-120.78911549 269.16247441 -121.66845517 255.27851129 -121.51953125 240.4765625 C-121.50946928 238.7136282 -121.50034918 236.95068826 -121.4921875 235.18774414 C-121.4704566 230.92710328 -121.43610911 226.66674149 -121.39453125 222.40625 C-122.21690781 222.41178076 -123.03928436 222.41731152 -123.88658142 222.42300987 C-143.90943523 222.55559475 -163.93221323 222.65484256 -183.95541382 222.71712303 C-193.63856789 222.74804308 -203.3214287 222.79018814 -213.00439453 222.85888672 C-221.44543755 222.9187455 -229.88626814 222.95741261 -238.32751751 222.97078097 C-242.79599495 222.97859383 -247.26386478 222.99691667 -251.73214722 223.04063034 C-255.94133603 223.08147414 -260.14966923 223.09389559 -264.3590374 223.08489609 C-265.90055434 223.08654151 -267.44210103 223.09840717 -268.98344612 223.12148285 C-276.70816073 223.23142011 -283.01114123 223.3166815 -289.09838867 217.98777199 C-291.83206852 214.65220161 -291.78909798 210.81282739 -291.7421875 206.69140625 C-291.13804001 202.72032445 -289.31111186 201.12839191 -286.39453125 198.40625 C-282.36146827 195.46266604 -279.52472072 195.03410725 -274.56718445 195.04548645 C-273.89320974 195.04292318 -273.21923503 195.0403599 -272.52483684 195.03771895 C-270.27371762 195.03279013 -268.02327389 195.04925826 -265.7722168 195.06567383 C-264.15573645 195.0665203 -262.53925495 195.06604457 -260.92277527 195.06434631 C-256.53881246 195.06348571 -252.15509598 195.08112194 -247.7711904 195.10206819 C-243.18811527 195.12082418 -238.60503447 195.12258458 -234.02192688 195.12614441 C-225.34512695 195.13546804 -216.66844044 195.16008614 -207.99169046 195.19019288 C-198.11269745 195.22372698 -188.23369901 195.24022041 -178.35466325 195.25527918 C-158.03455595 195.28663539 -137.71455075 195.3394021 -117.39453125 195.40625 C-117.33462509 194.73880264 -117.27471893 194.07135529 -117.21299744 193.38368225 C-117.12973709 192.49788986 -117.04647675 191.61209747 -116.96069336 190.69946289 C-116.8801622 189.82576553 -116.79963104 188.95206818 -116.71665955 188.05189514 C-116.2063935 183.86107147 -115.13569923 179.88995333 -113.95703125 175.84375 C-113.70405273 174.96404541 -113.45107422 174.08434082 -113.19042969 173.17797852 C-109.34207292 160.31913568 -104.45322678 147.39551365 -98.39453125 135.40625 C-99.62370773 135.40260437 -100.85288422 135.39895874 -102.11930847 135.39520264 C-113.69951597 135.35827172 -125.27945708 135.30051971 -136.85946178 135.22234726 C-142.81297603 135.18282736 -148.76634135 135.1506609 -154.7199707 135.13525391 C-160.46488635 135.12011724 -166.20939272 135.08572443 -171.95412636 135.03794098 C-174.14654293 135.02309638 -176.33901793 135.01520723 -178.5314846 135.01436615 C-181.60110558 135.01200407 -184.66958851 134.98498464 -187.73901367 134.95214844 C-189.10063377 134.95969398 -189.10063377 134.95969398 -190.48976135 134.96739197 C-194.59015282 134.89946757 -196.82163972 134.76143647 -200.3730011 132.55963135 C-204.73875217 127.90913088 -204.93023716 124.60198729 -204.85546875 118.43359375 C-204.15752073 113.84961312 -201.9508163 111.25312067 -198.39453125 108.40625 C-195.9826644 107.20031658 -194.48220048 107.28306082 -191.78817749 107.28599548 C-190.33261192 107.28393349 -190.33261192 107.28393349 -188.84764099 107.28182983 C-187.24542442 107.28722275 -187.24542442 107.28722275 -185.61083984 107.29272461 C-183.92791084 107.29250557 -183.92791084 107.29250557 -182.21098328 107.2922821 C-178.48829236 107.29298091 -174.76565097 107.30077185 -171.04296875 107.30859375 C-168.46749906 107.31045804 -165.89202901 107.31188189 -163.31655884 107.31288147 C-157.22152803 107.3163145 -151.12651778 107.32420261 -145.03149474 107.33423096 C-138.09325153 107.34539944 -131.15500749 107.3509044 -124.21675754 107.35592639 C-109.94267249 107.36638542 -95.66860251 107.38398029 -81.39453125 107.40625 C-81.08833359 106.62245468 -80.78213593 105.83865936 -80.46665955 105.03111267 C-79.48026181 102.61614181 -78.39458725 100.64159517 -76.9609375 98.47265625 C-76.24321167 97.38597656 -76.24321167 97.38597656 -75.51098633 96.27734375 C-74.99818115 95.51550781 -74.48537598 94.75367188 -73.95703125 93.96875 C-73.42424561 93.1746875 -72.89145996 92.380625 -72.3425293 91.5625 C-65.4309003 81.3754354 -57.8903469 71.88123076 -49.5625 62.81640625 C-46.51831118 59.43214588 -43.67805802 55.89664312 -40.82421875 52.3515625 C-39.13185969 50.30005329 -37.43003481 48.30908798 -35.65234375 46.3359375 C-27.406997 37.12764066 -20.65376035 27.16833517 -13.9453125 16.80126953 C-11.86730371 13.59200217 -9.76000002 10.40345027 -7.64453125 7.21875 C-6.75507812 5.86716797 -6.75507812 5.86716797 -5.84765625 4.48828125 C-3.07980175 0.52251123 -3.07980175 0.52251123 0 0 Z " fill="#1C4B32" transform="translate(547.39453125,269.59375)"/>
    <path d="M0 0 C0.33 0 0.66 0 1 0 C2.57007312 19.67910747 3.58636547 39.32898365 4.125 59.0625 C4.15579966 60.16453703 4.15579966 60.16453703 4.18722153 61.28883743 C5.07443139 93.22662274 5.24921762 125.16984365 5.30416107 157.1185112 C5.31240747 160.89512383 5.3260518 164.6716817 5.34112549 168.44827271 C5.44172432 195.78073944 5.26908497 222.83374341 2 250 C-0.09166852 246.86249723 -0.47113151 245.20655449 -1.03515625 241.546875 C-1.20466797 240.45117188 -1.37417969 239.35546875 -1.54882812 238.2265625 C-1.71833984 237.07929687 -1.88785156 235.93203125 -2.0625 234.75 C-2.23587891 233.64914062 -2.40925781 232.54828125 -2.58789062 231.4140625 C-4.95964215 215.7477804 -5.1710684 200.14889977 -5.203125 184.34375 C-5.21001929 182.22544843 -5.21696853 180.10714705 -5.22396851 177.98884583 C-5.24320531 171.15922918 -5.24764086 164.32964025 -5.25 157.5 C-5.25088371 156.33812038 -5.25176743 155.17624077 -5.25267792 153.97915268 C-5.27468345 121.39975375 -4.92333555 88.86743943 -3.625 56.3125 C-3.57739281 55.0959523 -3.57739281 55.0959523 -3.52882385 53.85482788 C-2.82259404 35.85769484 -1.89004585 17.91904186 0 0 Z " fill="#F9F9F6" transform="translate(547,459)"/>
  </g>

  <!-- Title text -->
  <text x="150" y="85" font-family="Arial, sans-serif" font-size="48" font-weight="bold" fill="#333">
    MongoDB Bulk
  </text>

  <!-- Subtitle -->
  <text x="150" y="120" font-family="Arial, sans-serif" font-size="24" fill="#666">
    Bulk Operations for n8n
  </text>

  <!-- Features -->
  <g transform="translate(150, 140)">
    <text x="0" y="0" font-family="Arial, sans-serif" font-size="14" fill="#10aa50">
      ⚡ Fast Bulk Operations
    </text>
    <text x="170" y="0" font-family="Arial, sans-serif" font-size="14" fill="#10aa50">
      📦 Insert/Update/Delete Many
    </text>
    <text x="390" y="0" font-family="Arial, sans-serif" font-size="14" fill="#10aa50">
      🔄 Mixed Bulk Write
    </text>
  </g>

  <!-- Decorative elements - stacked layers -->
  <g transform="translate(700, 60)">
    <rect x="0" y="0" width="40" height="8" rx="4" fill="#10aa50" opacity="0.3"/>
    <rect x="0" y="12" width="40" height="8" rx="4" fill="#10aa50" opacity="0.5"/>
    <rect x="0" y="24" width="40" height="8" rx="4" fill="#10aa50" opacity="0.7"/>
    <rect x="0" y="36" width="40" height="8" rx="4" fill="#10aa50"/>
  </g>
</svg>
