<svg xmlns="http://www.w3.org/2000/svg" viewBox="0 0 800 200" width="800" height="200">
  <!-- Background gradient -->
  <defs>
    <linearGradient id="grad1" x1="0%" y1="0%" x2="100%" y2="0%">
      <stop offset="0%" style="stop-color:#10aa50;stop-opacity:0.1" />
      <stop offset="100%" style="stop-color:#13aa52;stop-opacity:0.2" />
    </linearGradient>
  </defs>

  <rect width="800" height="200" fill="url(#grad1)"/>

  <!-- MongoDB Bulk operations icon -->
  <g transform="translate(50, 50) scale(1.5)">
    <!-- Database/Collection representation -->
    <g transform="translate(0, 5)">
      <!-- Stack of documents/collections -->
      <rect x="2" y="15" width="28" height="4" rx="2" fill="#10aa50" opacity="0.4"/>
      <rect x="2" y="10" width="28" height="4" rx="2" fill="#10aa50" opacity="0.6"/>
      <rect x="2" y="5" width="28" height="4" rx="2" fill="#10aa50" opacity="0.8"/>
      <rect x="2" y="0" width="28" height="4" rx="2" fill="#10aa50"/>
      
      <!-- Bulk operation arrows -->
      <g transform="translate(35, 0)">
        <!-- Multiple arrows representing bulk operations -->
        <path d="M0,2 L8,2 L6,0 M8,2 L6,4" stroke="#13aa52" stroke-width="2" fill="none"/>
        <path d="M0,7 L8,7 L6,5 M8,7 L6,9" stroke="#13aa52" stroke-width="2" fill="none"/>
        <path d="M0,12 L8,12 L6,10 M8,12 L6,14" stroke="#13aa52" stroke-width="2" fill="none"/>
        <path d="M0,17 L8,17 L6,15 M8,17 L6,19" stroke="#13aa52" stroke-width="2" fill="none"/>
      </g>
      
      <!-- Target collection -->
      <g transform="translate(50, 0)">
        <rect x="0" y="15" width="28" height="4" rx="2" fill="#12924f" opacity="0.4"/>
        <rect x="0" y="10" width="28" height="4" rx="2" fill="#12924f" opacity="0.6"/>
        <rect x="0" y="5" width="28" height="4" rx="2" fill="#12924f" opacity="0.8"/>
        <rect x="0" y="0" width="28" height="4" rx="2" fill="#12924f"/>
      </g>
    </g>
    
    <!-- MongoDB leaf accent -->
    <g transform="translate(5, 25) scale(0.4)">
      <path fill="#10aa50" d="M15.9.087l.854 1.604c.192.296.4.558.645.802a22.406 22.406 0 013.745 7.137c1.034 3.41 1.537 6.946 1.537 10.484 0 3.538-.503 7.074-1.537 10.484a22.406 22.406 0 01-3.745 7.137 10.28 10.28 0 01-.645.802l-.854 1.604-.854-1.604a10.28 10.28 0 01-.645-.802 22.406 22.406 0 01-3.745-7.137c-1.034-3.41-1.537-6.946-1.537-10.484 0-3.538.503-7.074 1.537-10.484a22.406 22.406 0 013.745-7.137c.245-.244.453-.506.645-.802L15.9.087z"/>
    </g>
  </g>

  <!-- Title text -->
  <text x="150" y="85" font-family="Arial, sans-serif" font-size="48" font-weight="bold" fill="#333">
    MongoDB Bulk
  </text>

  <!-- Subtitle -->
  <text x="150" y="120" font-family="Arial, sans-serif" font-size="24" fill="#666">
    Bulk Operations for n8n
  </text>

  <!-- Features -->
  <g transform="translate(150, 140)">
    <text x="0" y="0" font-family="Arial, sans-serif" font-size="14" fill="#10aa50">
      ⚡ Fast Bulk Operations
    </text>
    <text x="170" y="0" font-family="Arial, sans-serif" font-size="14" fill="#10aa50">
      📦 Insert/Update/Delete Many
    </text>
    <text x="390" y="0" font-family="Arial, sans-serif" font-size="14" fill="#10aa50">
      🔄 Mixed Bulk Write
    </text>
  </g>

  <!-- Decorative elements - stacked layers -->
  <g transform="translate(700, 60)">
    <rect x="0" y="0" width="40" height="8" rx="4" fill="#10aa50" opacity="0.3"/>
    <rect x="0" y="12" width="40" height="8" rx="4" fill="#10aa50" opacity="0.5"/>
    <rect x="0" y="24" width="40" height="8" rx="4" fill="#10aa50" opacity="0.7"/>
    <rect x="0" y="36" width="40" height="8" rx="4" fill="#10aa50"/>
  </g>
</svg>
