<svg xmlns="http://www.w3.org/2000/svg" viewBox="0 0 128 128" width="128" height="128">
  <!-- Background -->
  <rect width="128" height="128" rx="16" fill="#10aa50"/>

  <!-- MongoDB leaf icon (larger, centered) -->
  <g transform="translate(48, 25) scale(1.2)">
    <path fill="#ffffff" d="M15.9.087l.854 1.604c.192.296.4.558.645.802a22.406 22.406 0 013.745 7.137c1.034 3.41 1.537 6.946 1.537 10.484 0 3.538-.503 7.074-1.537 10.484a22.406 22.406 0 01-3.745 7.137 10.28 10.28 0 01-.645.802l-.854 1.604-.854-1.604a10.28 10.28 0 01-.645-.802 22.406 22.406 0 01-3.745-7.137c-1.034-3.41-1.537-6.946-1.537-10.484 0-3.538.503-7.074 1.537-10.484a22.406 22.406 0 013.745-7.137c.245-.244.453-.506.645-.802L15.9.087z"/>
    <path fill="#d0d0d0" d="M15.9 0l.854 1.604c.192.296.4.558.645.802a22.406 22.406 0 013.745 7.137c1.034 3.41 1.537 6.946 1.537 10.484 0 3.538-.503 7.074-1.537 10.484a22.406 22.406 0 01-3.745 7.137 10.28 10.28 0 01-.645.802L15.9 40l-.854-1.604a10.28 10.28 0 01-.645-.802 22.406 22.406 0 01-3.745-7.137c-1.034-3.41-1.537-6.946-1.537-10.484 0-3.538.503-7.074 1.537-10.484a22.406 22.406 0 013.745-7.137c.245-.244.453-.506.645-.802L15.9 0z" opacity=".3"/>
    <path fill="#e0e0e0" d="M15.9 28.785v10.3l-.854-1.604a10.28 10.28 0 01-.645-.802 22.406 22.406 0 01-3.745-7.137c-1.034-3.41-1.537-6.946-1.537-10.484 0-3.538.503-7.074 1.537-10.484a22.406 22.406 0 013.745-7.137c.245-.244.453-.506.645-.802L15.9.087v10.3"/>
  </g>

  <!-- "BULK" text -->
  <text x="64" y="100" font-family="Arial, sans-serif" font-size="20" font-weight="bold" fill="#ffffff" text-anchor="middle">
    BULK
  </text>

  <!-- Stacked layers indicator -->
  <g transform="translate(30, 95)">
    <rect x="0" y="0" width="8" height="2" rx="1" fill="#ffffff" opacity="0.5"/>
    <rect x="0" y="4" width="8" height="2" rx="1" fill="#ffffff" opacity="0.7"/>
    <rect x="0" y="8" width="8" height="2" rx="1" fill="#ffffff"/>
  </g>

  <g transform="translate(90, 95)">
    <rect x="0" y="0" width="8" height="2" rx="1" fill="#ffffff" opacity="0.5"/>
    <rect x="0" y="4" width="8" height="2" rx="1" fill="#ffffff" opacity="0.7"/>
    <rect x="0" y="8" width="8" height="2" rx="1" fill="#ffffff"/>
  </g>
</svg>
