<svg xmlns="http://www.w3.org/2000/svg" viewBox="0 0 32 32" width="32" height="32">
  <path fill="#10aa50" d="M15.9.087l.854 1.604c.192.296.4.558.645.802a22.406 22.406 0 013.745 7.137c1.034 3.41 1.537 6.946 1.537 10.484 0 3.538-.503 7.074-1.537 10.484a22.406 22.406 0 01-3.745 7.137 10.28 10.28 0 01-.645.802l-.854 1.604-.854-1.604a10.28 10.28 0 01-.645-.802 22.406 22.406 0 01-3.745-7.137c-1.034-3.41-1.537-6.946-1.537-10.484 0-3.538.503-7.074 1.537-10.484a22.406 22.406 0 013.745-7.137c.245-.244.453-.506.645-.802L15.9.087z"/>
  <path fill="#b8c4c2" d="M15.9 0l.854 1.604c.192.296.4.558.645.802a22.406 22.406 0 013.745 7.137c1.034 3.41 1.537 6.946 1.537 10.484 0 3.538-.503 7.074-1.537 10.484a22.406 22.406 0 01-3.745 7.137 10.28 10.28 0 01-.645.802L15.9 40l-.854-1.604a10.28 10.28 0 01-.645-.802 22.406 22.406 0 01-3.745-7.137c-1.034-3.41-1.537-6.946-1.537-10.484 0-3.538.503-7.074 1.537-10.484a22.406 22.406 0 013.745-7.137c.245-.244.453-.506.645-.802L15.9 0z" opacity=".25"/>
  <path fill="#12924f" d="M15.9 28.785v10.3l-.854-1.604a10.28 10.28 0 01-.645-.802 22.406 22.406 0 01-3.745-7.137c-1.034-3.41-1.537-6.946-1.537-10.484 0-3.538.503-7.074 1.537-10.484a22.406 22.406 0 013.745-7.137c.245-.244.453-.506.645-.802L15.9.087v10.3"/>
</svg>
