<svg xmlns="http://www.w3.org/2000/svg" viewBox="0 0 64 64" width="64" height="64">
  <!-- Background circle -->
  <circle cx="32" cy="32" r="30" fill="#f0f0f0" opacity="0.3"/>

  <!-- MongoDB leaf icon (centered, slightly larger) -->
  <g transform="translate(20, 12)">
    <path fill="#10aa50" d="M11.9 0.087l.854 1.604c.192.296.4.558.645.802a22.406 22.406 0 013.745 7.137c1.034 3.41 1.537 6.946 1.537 10.484 0 3.538-.503 7.074-1.537 10.484a22.406 22.406 0 01-3.745 7.137 10.28 10.28 0 01-.645.802l-.854 1.604-.854-1.604a10.28 10.28 0 01-.645-.802 22.406 22.406 0 01-3.745-7.137c-1.034-3.41-1.537-6.946-1.537-10.484 0-3.538.503-7.074 1.537-10.484a22.406 22.406 0 013.745-7.137c.245-.244.453-.506.645-.802L11.9.087z"/>
    <path fill="#b8c4c2" d="M11.9 0l.854 1.604c.192.296.4.558.645.802a22.406 22.406 0 013.745 7.137c1.034 3.41 1.537 6.946 1.537 10.484 0 3.538-.503 7.074-1.537 10.484a22.406 22.406 0 01-3.745 7.137 10.28 10.28 0 01-.645.802L11.9 40l-.854-1.604a10.28 10.28 0 01-.645-.802 22.406 22.406 0 01-3.745-7.137c-1.034-3.41-1.537-6.946-1.537-10.484 0-3.538.503-7.074 1.537-10.484a22.406 22.406 0 013.745-7.137c.245-.244.453-.506.645-.802L11.9 0z" opacity=".25"/>
    <path fill="#12924f" d="M11.9 28.785v10.3l-.854-1.604a10.28 10.28 0 01-.645-.802 22.406 22.406 0 01-3.745-7.137c-1.034-3.41-1.537-6.946-1.537-10.484 0-3.538.503-7.074 1.537-10.484a22.406 22.406 0 013.745-7.137c.245-.244.453-.506.645-.802L11.9.087v10.3"/>
  </g>

  <!-- "Bulk" indicator - stacked layers effect -->
  <g opacity="0.8">
    <!-- Layer 1 (back) -->
    <rect x="38" y="42" width="20" height="3" rx="1.5" fill="#10aa50" opacity="0.4"/>
    <!-- Layer 2 (middle) -->
    <rect x="38" y="47" width="20" height="3" rx="1.5" fill="#10aa50" opacity="0.6"/>
    <!-- Layer 3 (front) -->
    <rect x="38" y="52" width="20" height="3" rx="1.5" fill="#10aa50"/>
  </g>

  <!-- Lightning bolt for "fast operations" -->
  <path d="M50 18 L46 28 L50 28 L47 38 L55 26 L51 26 L54 18 Z" fill="#ffa500" opacity="0.8"/>
</svg>
